<?xml version="1.0" encoding="UTF-8" standalone="no"?>
<!DOCTYPE svg PUBLIC "-//W3C//DTD SVG 1.1//EN"
 "http://www.w3.org/Graphics/SVG/1.1/DTD/svg11.dtd">
<!-- Generated by graphviz version 2.28.0 (20110507.0327)
 -->
<!-- Title: G Pages: 1 -->
<svg width="782pt" height="330pt"
 viewBox="0.00 0.00 782.00 330.00" xmlns="http://www.w3.org/2000/svg" xmlns:xlink="http://www.w3.org/1999/xlink">
<g id="graph1" class="graph" transform="scale(1 1) rotate(0) translate(4 326)">
<title>G</title>
<polygon fill="white" stroke="white" points="-4,5 -4,-326 779,-326 779,5 -4,5"/>
<g id="graph2" class="cluster"><title>cluster_eu</title>
<polyline fill="none" stroke="gray" points="20,-8 754,-8 "/>
<path fill="none" stroke="gray" d="M754,-8C760,-8 766,-14 766,-20"/>
<polyline fill="none" stroke="gray" points="766,-20 766,-302 "/>
<path fill="none" stroke="gray" d="M766,-302C766,-308 760,-314 754,-314"/>
<polyline fill="none" stroke="gray" points="754,-314 20,-314 "/>
<path fill="none" stroke="gray" d="M20,-314C14,-314 8,-308 8,-302"/>
<polyline fill="none" stroke="gray" points="8,-302 8,-20 "/>
<path fill="none" stroke="gray" d="M8,-20C8,-14 14,-8 20,-8"/>
<text text-anchor="middle" x="387" y="-301.2" font-family="Times New Roman,serif" font-size="11.00" fill="gray">eu</text>
</g>
<g id="graph3" class="cluster"><title>cluster_eu\maxschuster</title>
<polyline fill="none" stroke="gray" points="28,-16 746,-16 "/>
<path fill="none" stroke="gray" d="M746,-16C752,-16 758,-22 758,-28"/>
<polyline fill="none" stroke="gray" points="758,-28 758,-274 "/>
<path fill="none" stroke="gray" d="M758,-274C758,-280 752,-286 746,-286"/>
<polyline fill="none" stroke="gray" points="746,-286 28,-286 "/>
<path fill="none" stroke="gray" d="M28,-286C22,-286 16,-280 16,-274"/>
<polyline fill="none" stroke="gray" points="16,-274 16,-28 "/>
<path fill="none" stroke="gray" d="M16,-28C16,-22 22,-16 28,-16"/>
<text text-anchor="middle" x="387" y="-273.2" font-family="Times New Roman,serif" font-size="11.00" fill="gray">maxschuster</text>
</g>
<g id="graph4" class="cluster"><title>cluster_eu\maxschuster\rest</title>
<polyline fill="none" stroke="gray" points="36,-24 738,-24 "/>
<path fill="none" stroke="gray" d="M738,-24C744,-24 750,-30 750,-36"/>
<polyline fill="none" stroke="gray" points="750,-36 750,-246 "/>
<path fill="none" stroke="gray" d="M750,-246C750,-252 744,-258 738,-258"/>
<polyline fill="none" stroke="gray" points="738,-258 36,-258 "/>
<path fill="none" stroke="gray" d="M36,-258C30,-258 24,-252 24,-246"/>
<polyline fill="none" stroke="gray" points="24,-246 24,-36 "/>
<path fill="none" stroke="gray" d="M24,-36C24,-30 30,-24 36,-24"/>
<text text-anchor="middle" x="387" y="-245.2" font-family="Times New Roman,serif" font-size="11.00" fill="gray">rest</text>
</g>
<!-- \\eu\\maxschuster\\rest\\RESTAuth -->
<g id="node4" class="node"><title>\\eu\\maxschuster\\rest\\RESTAuth</title>
<a xlink:href="RESTAuth.html" xlink:title="«abstract»&lt;br/&gt;RESTAuth" target="_parent">
<polygon fill="none" stroke="black" points="446.5,-230 361.5,-230 361.5,-194 446.5,-194 446.5,-230"/>
<text text-anchor="start" x="370" y="-215.7" font-family="Courier,monospace" font-size="11.00">«abstract»</text>
<text text-anchor="start" x="376.5" y="-204.7" font-family="Courier,monospace" font-size="11.00">RESTAuth</text>
</a>
</g>
<!-- \\eu\\maxschuster\\rest\\RESTAuthInterface -->
<g id="node6" class="node"><title>\\eu\\maxschuster\\rest\\RESTAuthInterface</title>
<a xlink:href="RESTAuthInterface.html" xlink:title="RESTAuthInterface" target="_parent">
<polygon fill="none" stroke="black" points="207.5,-230 76.5,-230 76.5,-194 207.5,-194 207.5,-230"/>
<text text-anchor="middle" x="142" y="-209.2" font-family="Courier,monospace" font-size="11.00">RESTAuthInterface</text>
</a>
</g>
<!-- \\eu\\maxschuster\\rest\\RESTAuth&#45;&gt;\\eu\\maxschuster\\rest\\RESTAuthInterface -->
<g id="edge10" class="edge"><title>\\eu\\maxschuster\\rest\\RESTAuth&#45;&gt;\\eu\\maxschuster\\rest\\RESTAuthInterface</title>
<path fill="none" stroke="black" stroke-dasharray="1,5" d="M361.227,-212C322.577,-212 264.229,-212 217.588,-212"/>
<polygon fill="none" stroke="black" points="217.523,-208.5 207.523,-212 217.523,-215.5 217.523,-208.5"/>
</g>
<!-- \\eu\\maxschuster\\rest\\RESTAuthDigest -->
<g id="node5" class="node"><title>\\eu\\maxschuster\\rest\\RESTAuthDigest</title>
<a xlink:href="RESTAuthDigest.html" xlink:title="«abstract»&lt;br/&gt;RESTAuthDigest" target="_parent">
<polygon fill="none" stroke="black" points="705,-230 593,-230 593,-194 705,-194 705,-230"/>
<text text-anchor="start" x="615" y="-215.7" font-family="Courier,monospace" font-size="11.00">«abstract»</text>
<text text-anchor="start" x="601.5" y="-204.7" font-family="Courier,monospace" font-size="11.00">RESTAuthDigest</text>
</a>
</g>
<!-- \\eu\\maxschuster\\rest\\RESTAuthDigest&#45;&gt;\\eu\\maxschuster\\rest\\RESTAuth -->
<g id="edge6" class="edge"><title>\\eu\\maxschuster\\rest\\RESTAuthDigest&#45;&gt;\\eu\\maxschuster\\rest\\RESTAuth</title>
<path fill="none" stroke="black" d="M592.86,-212C552.025,-212 496.764,-212 456.757,-212"/>
<polygon fill="none" stroke="black" points="456.676,-208.5 446.676,-212 456.676,-215.5 456.676,-208.5"/>
</g>
<!-- \\eu\\maxschuster\\rest\\RESTRequest -->
<g id="node7" class="node"><title>\\eu\\maxschuster\\rest\\RESTRequest</title>
<a xlink:href="RESTRequest.html" xlink:title="RESTRequest" target="_parent">
<polygon fill="none" stroke="black" points="694.5,-176 603.5,-176 603.5,-140 694.5,-140 694.5,-176"/>
<text text-anchor="middle" x="649" y="-155.2" font-family="Courier,monospace" font-size="11.00">RESTRequest</text>
</a>
</g>
<!-- \\eu\\maxschuster\\rest\\RESTService -->
<g id="node8" class="node"><title>\\eu\\maxschuster\\rest\\RESTService</title>
<a xlink:href="RESTService.html" xlink:title="RESTService" target="_parent">
<polygon fill="none" stroke="black" points="694.5,-122 603.5,-122 603.5,-86 694.5,-86 694.5,-122"/>
<text text-anchor="middle" x="649" y="-101.2" font-family="Courier,monospace" font-size="11.00">RESTService</text>
</a>
</g>
<!-- \\eu\\maxschuster\\rest\\RESTServiceController -->
<g id="node9" class="node"><title>\\eu\\maxschuster\\rest\\RESTServiceController</title>
<a xlink:href="RESTServiceController.html" xlink:title="«abstract»&lt;br/&gt;RESTServiceController" target="_parent">
<polygon fill="none" stroke="black" points="483.5,-68 324.5,-68 324.5,-32 483.5,-32 483.5,-68"/>
<text text-anchor="start" x="370" y="-53.7" font-family="Courier,monospace" font-size="11.00">«abstract»</text>
<text text-anchor="start" x="333" y="-42.7" font-family="Courier,monospace" font-size="11.00">RESTServiceController</text>
</a>
</g>
<!-- \\eu\\maxschuster\\rest\\RESTServiceControllerInterface -->
<g id="node10" class="node"><title>\\eu\\maxschuster\\rest\\RESTServiceControllerInterface</title>
<a xlink:href="RESTServiceControllerInterface.html" xlink:title="RESTServiceControllerInterface" target="_parent">
<polygon fill="none" stroke="black" points="251.5,-68 32.5,-68 32.5,-32 251.5,-32 251.5,-68"/>
<text text-anchor="middle" x="142" y="-47.2" font-family="Courier,monospace" font-size="11.00">RESTServiceControllerInterface</text>
</a>
</g>
<!-- \\eu\\maxschuster\\rest\\RESTServiceController&#45;&gt;\\eu\\maxschuster\\rest\\RESTServiceControllerInterface -->
<g id="edge12" class="edge"><title>\\eu\\maxschuster\\rest\\RESTServiceController&#45;&gt;\\eu\\maxschuster\\rest\\RESTServiceControllerInterface</title>
<path fill="none" stroke="black" stroke-dasharray="1,5" d="M324.286,-50C304.545,-50 282.924,-50 261.708,-50"/>
<polygon fill="none" stroke="black" points="261.667,-46.5001 251.667,-50 261.667,-53.5001 261.667,-46.5001"/>
</g>
<!-- \\eu\\maxschuster\\rest\\RESTServiceCRUDController -->
<g id="node11" class="node"><title>\\eu\\maxschuster\\rest\\RESTServiceCRUDController</title>
<a xlink:href="RESTServiceCRUDController.html" xlink:title="«abstract»&lt;br/&gt;RESTServiceCRUDController" target="_parent">
<polygon fill="none" stroke="black" points="742,-68 556,-68 556,-32 742,-32 742,-68"/>
<text text-anchor="start" x="615" y="-53.7" font-family="Courier,monospace" font-size="11.00">«abstract»</text>
<text text-anchor="start" x="564.5" y="-42.7" font-family="Courier,monospace" font-size="11.00">RESTServiceCRUDController</text>
</a>
</g>
<!-- \\eu\\maxschuster\\rest\\RESTServiceCRUDController&#45;&gt;\\eu\\maxschuster\\rest\\RESTServiceController -->
<g id="edge8" class="edge"><title>\\eu\\maxschuster\\rest\\RESTServiceCRUDController&#45;&gt;\\eu\\maxschuster\\rest\\RESTServiceController</title>
<path fill="none" stroke="black" d="M555.786,-50C535.456,-50 513.963,-50 493.772,-50"/>
<polygon fill="none" stroke="black" points="493.662,-46.5001 483.662,-50 493.662,-53.5001 493.662,-46.5001"/>
</g>
</g>
</svg>
